Coordinates
version=1
nRows=24
nColumns=24
inDegrees=yes

Units are S.I. units (second, meters, Newtons, ...)
Angles are in degrees.

endheader
time	pelvis_tilt	pelvis_list	pelvis_rotation	pelvis_tx	pelvis_ty	pelvis_tz	hip_flexion_r	hip_adduction_r	hip_rotation_r	knee_angle_r	ankle_angle_r	subtalar_angle_r	mtp_angle_r	hip_flexion_l	hip_adduction_l	hip_rotation_l	knee_angle_l	ankle_angle_l	subtalar_angle_l	mtp_angle_l	lumbar_extension	lumbar_bending	lumbar_rotation
      3.71500000	     -9.55248815	      8.19065005	     -0.21305843	     -0.74990888	     -0.01692796	      0.63821124	     40.14589825	    -12.45097337	     -2.51848870	    -67.30854189	    -17.20965413	    -17.11539911	     27.53332213	      8.04586654	     12.83167514	     17.12668574	    -15.83873250	     15.98794608	    -13.74675984	    -35.45222726	      7.62182570	     -8.56014647	     -6.58073051
      3.72000000	     -9.51247387	      7.97467212	     -0.00622594	     -0.74314215	     -0.01701669	      0.63785240	     40.56806917	    -12.29938073	     -2.70957826	    -66.42836666	    -16.87801283	    -17.24741197	     26.58378534	      7.35204134	     12.61834474	     17.60710441	    -15.51073813	     16.15646762	    -13.85945508	    -35.58961722	      7.47589821	     -8.30308651	     -6.96277079
      3.72500000	     -9.45852004	      7.79871980	      0.14236979	     -0.73642823	     -0.01719194	      0.63760976	     40.98166951	    -12.13057669	     -2.79109383	    -65.50612916	    -16.51760597	    -17.23973838	     25.60147477	      6.65562429	     12.42762841	     18.03263121	    -15.18738860	     16.32918910	    -13.94054895	    -35.69436345	      7.31561377	     -8.08110008	     -7.27378793
      3.73000000	     -9.44285416	      7.60467983	      0.35984443	     -0.72972126	     -0.01743867	      0.63726193	     41.37506294	    -11.99972654	     -2.92861353	    -64.47895840	    -16.22648142	    -17.26048297	     25.15903345	      6.02508285	     12.22275029	     18.39968209	    -14.90828872	     16.47344776	    -13.95672748	    -35.64672450	      7.18730796	     -7.84576461	     -7.68074111
      3.73500000	     -9.46871345	      7.43757269	      0.49116214	     -0.72297755	     -0.01780163	      0.63707546	     41.80900082	    -11.81226675	     -2.93171633	    -63.38649508	    -15.95673694	    -17.20241335	     24.89509738	      5.44191074	     12.02037583	     18.69218731	    -14.61930922	     16.61220115	    -13.94219339	    -35.56330879	      7.12740356	     -7.62472126	     -7.89332885
      3.74000000	     -9.27827170	      7.30153561	      0.70055662	     -0.71632374	     -0.01799058	      0.63682789	     41.96020315	    -11.73221664	     -3.02091024	    -62.25633268	    -15.51883577	    -17.02852683	     24.15762768	      4.62432678	     11.85002349	     19.02769746	    -14.32918387	     16.70870722	    -13.89726069	    -35.35528064	      6.79361196	     -7.45808129	     -8.29711235
      3.74500000	     -9.23406012	      7.15907904	      0.85423687	     -0.70964973	     -0.01838104	      0.63667731	     42.25372973	    -11.57462378	     -2.98015267	    -61.04841170	    -15.16388469	    -16.76599041	     23.81675438	      3.99429207	     11.65671942	     19.20659812	    -14.07229995	     16.84838368	    -13.77849622	    -35.15173633	      6.63730839	     -7.27179923	     -8.62116984
      3.75000000	     -9.25877907	      7.04768769	      0.95322762	     -0.70293733	     -0.01890998	      0.63662148	     42.60536920	    -11.39261429	     -2.84572377	    -59.77081843	    -14.85961663	    -16.56635618	     23.66996343	      3.44223390	     11.48471581	     19.31902425	    -13.81004951	     16.98310423	    -13.67343636	    -35.01767333	      6.56987314	     -7.10819508	     -8.82115825
      3.75500000	     -9.04717037	      6.94786198	      1.06979376	     -0.69625055	     -0.01920348	      0.63659965	     42.65101670	    -11.25639697	     -2.75835726	    -58.44602617	    -14.40105774	    -16.20668375	     23.06795194	      2.63475752	     11.30340950	     19.30422049	    -13.52606595	     17.06227743	    -13.43225354	    -34.57009811	      6.22788620	     -6.96698030	     -9.13187296
      3.76000000	     -8.99955222	      6.87623188	      1.19889337	     -0.68955710	     -0.01974751	      0.63656248	     42.84854281	    -11.13667344	     -2.58833942	    -57.05581574	    -13.98274547	    -15.81829497	     22.93909906	      2.02428112	     11.15449949	     19.30590386	    -13.29399295	     17.23751760	    -13.11473961	    -34.27526784	      6.06759899	     -6.85301244	     -9.37641452
      3.76500000	     -8.89919844	      6.79918917	      1.27277201	     -0.68283918	     -0.02022931	      0.63661664	     42.95402026	    -10.96997610	     -2.37180184	    -55.59334791	    -13.59937675	    -15.46363038	     22.65026882	      1.36032526	     10.98469952	     19.16212392	    -13.04378953	     17.35163591	    -12.75461855	    -33.85289654	      5.85676925	     -6.72067544	     -9.60849539
      3.77000000	     -8.89448105	      6.73163340	      1.35419132	     -0.67603010	     -0.02083944	      0.63667704	     43.11982967	    -10.81968717	     -2.13942449	    -54.06425893	    -13.21458560	    -15.07859162	     22.53791242	      0.78743862	     10.82378445	     19.05703908	    -12.78591103	     17.49808461	    -12.40071140	    -33.57877302	      5.76523393	     -6.60936991	     -9.76583583
      3.77500000	     -8.80743788	      6.68430767	      1.42268950	     -0.66928153	     -0.02138511	      0.63674525	     43.16129141	    -10.67847502	     -1.85811189	    -52.47685577	    -12.78321593	    -14.66714526	     22.35813381	      0.15382218	     10.67827574	     18.81287288	    -12.56428575	     17.65533381	    -11.90114203	    -33.23654203	      5.56613811	     -6.50169454	     -9.97200782
      3.78000000	     -8.63524576	      6.65034933	      1.46539619	     -0.66261400	     -0.02186440	      0.63701591	     43.08599241	    -10.51739799	     -1.57148686	    -50.84855718	    -12.37146844	    -14.42517915	     21.68383404	     -0.52835054	     10.52036810	     18.33305036	    -12.39279282	     17.73530838	    -11.14333226	    -32.27888983	      5.25708021	     -6.43071921	    -10.18665526
      3.78500000	     -8.60971715	      6.61670535	      1.52377081	     -0.65578421	     -0.02250527	      0.63711998	     43.11638369	    -10.38692870	     -1.24805061	    -49.15518041	    -11.88625650	    -13.94681813	     21.42578753	     -1.07682358	     10.38213314	     17.93716517	    -12.19601584	     17.76335418	    -10.53542719	    -31.47542675	      5.13820865	     -6.33593830	    -10.36718133
      3.79000000	     -8.55903136	      6.56001188	      1.56191277	     -0.64893839	     -0.02309999	      0.63731218	     43.07387271	    -10.21957717	     -0.93659300	    -47.39508188	    -11.47517861	    -13.63122989	     21.02802532	     -1.63511369	     10.20570196	     17.41553630	    -12.01928733	     17.79695933	     -9.79002310	    -30.53100265	      4.99057516	     -6.22069219	    -10.52399225
      3.79500000	     -8.65435064	      6.49337924	      1.61838874	     -0.64197716	     -0.02389540	      0.63751912	     43.15421166	    -10.05035743	     -0.63356808	    -45.63203203	    -10.90677592	    -13.21389932	     20.11456021	     -2.01563423	     10.01101262	     16.70925833	    -11.82985667	     16.96739164	     -9.11471280	    -26.78461917	      5.02477182	     -6.09863360	    -10.66187002
      3.80000000	     -8.60598120	      6.47239434	      1.67452576	     -0.63509539	     -0.02449042	      0.63763896	     43.03807708	     -9.95242575	     -0.30898522	    -43.76773180	    -10.57886827	    -12.95777814	     20.18864489	     -2.56472505	      9.88095300	     16.22760782	    -11.68340474	     17.14062299	     -8.35496993	    -26.52120788	      4.87655715	     -6.01072248	    -10.83817971
      3.80500000	     -8.62097216	      6.36229198	      1.70116137	     -0.62804581	     -0.02512598	      0.63784825	     42.93234770	     -9.74289412	     -0.01494890	    -41.86751776	    -10.23105544	    -12.77423694	     19.78103481	     -3.02185646	      9.64463710	     15.55903596	    -11.57125221	     17.21528474	     -7.44630399	    -25.63724448	      4.82930346	     -5.82659567	    -10.96539621
      3.81000000	     -8.62241985	      6.28013519	      1.76623080	     -0.62099014	     -0.02577162	      0.63799023	     42.78602871	     -9.59887622	      0.28549063	    -39.97571578	     -9.79510720	    -12.42025152	     19.38967673	     -3.48262707	      9.43714154	     14.89852800	    -11.47838399	     17.14597229	     -6.51235703	    -24.33600712	      4.76223452	     -5.67045144	    -11.13995184
      3.81500000	     -8.72292003	      6.30578233	      1.90952980	     -0.61385800	     -0.02656623	      0.63784509	     42.74541265	     -9.65091132	      0.55651087	    -38.12411433	     -9.29790506	    -11.83547935	     19.46610102	     -3.88100322	      9.38143938	     14.60492283	    -11.35748302	     17.12306354	     -5.92929422	    -23.99001921	      4.80960695	     -5.61675370	    -11.35759194
      3.82000000	     -8.76362483	      6.18777075	      1.97858426	     -0.60669796	     -0.02729720	      0.63814085	     42.59316903	     -9.45368881	      0.89616782	    -36.28285647	     -8.80684236	    -11.44304804	     18.60524229	     -4.24070660	      9.10044956	     13.56522000	    -11.27556869	     16.00668338	     -4.85965553	    -18.99949009	      4.79736233	     -5.43989636	    -11.53794426
      3.82500000	     -8.79318332	      6.10495345	      2.17353565	     -0.59947643	     -0.02794960	      0.63799729	     42.38368356	     -9.43865057	      1.08850162	    -34.42091074	     -8.50381002	    -11.02855735	     18.84353274	     -4.65798696	      8.90943984	     13.19498180	    -11.27057272	     16.08835789	     -4.00042736	    -18.63145254	      4.77110264	     -5.27642677	    -11.84893399
      3.83000000	     -8.83422160	      5.99053249	      2.34220565	     -0.59212828	     -0.02863660	      0.63792102	     42.16869872	     -9.36734726	      1.31983950	    -32.61833962	     -8.17566834	    -10.53553783	     18.92838732	     -5.04478398	      8.67491582	     12.71173523	    -11.29321098	     16.09729615	     -3.04239166	    -17.88317030	      4.77968406	     -5.07522697	    -12.10973191
